<?xml version="1.0" encoding="utf-8"?>
<!-- Generator: Adobe Illustrator 18.1.1, SVG Export Plug-In . SVG Version: 6.00 Build 0)  -->
<svg version="1.1" xmlns="http://www.w3.org/2000/svg" xmlns:xlink="http://www.w3.org/1999/xlink" x="0px" y="0px"
	 viewBox="0 0 940 560" enable-background="new 0 0 940 560" xml:space="preserve">
	<defs>
			<path id="measure_x5F_clip" d="M516.1,84.6l23,6.2l-91.8,342.5c8.4,6.9,12.6,18.4,9.5,29.6c-4.1,15.3-19.8,24.4-35.1,20.3
				c-15.3-4.1-24.4-19.8-20.3-35.1c3-11.1,12.1-18.9,22.8-20.8L516.1,84.6z"/>
		<clipPath id="measure_x5F_clip_1_">
			<use xlink:href="#measure_x5F_clip"  overflow="visible"/>
		</clipPath>

	</defs>
<g id="temperatureLayer" clip-path="url(#pollutionwidthmask_1_)">
	<g id="temperature">
		<linearGradient id="SVGID_1_temp" gradientUnits="userSpaceOnUse" x1="470" y1="952" x2="470" y2="392">
			<stop  offset="0.65" style="stop-color:#C73121"/>
			<stop  offset="0.9" style="stop-color:#E74128"/>
		</linearGradient>
		<rect x="-2463.4" y="392" fill="url(#SVGID_1_temp)" width="5866.8" height="560"/>
		<g id="pointer">
			<path fill="#FFFFFF" d="M623.1,456.4l-9.6-15.2c-1-1.6-0.7-3.6,0.6-4.9l0,0c1.6-1.6,4.3-1.4,5.7,0.3l6.2,7.6c0.3,0.4,1,0.2,1-0.3
				l1-33.7c0.1-1.7,1.4-3,3.1-3l0,0c1.6,0,3,1.3,3.1,2.9l1,24c0,0.6,0.9,0.6,0.9,0.1l1.7-10.8c0.2-1.5,1.5-2.6,3-2.6h0.5
				c1.6,0,2.9,1.2,3.1,2.8l1.1,10.7c0.1,0.6,0.9,0.6,0.9,0l1-9.9c0.2-1.6,1.5-2.8,3.1-2.8h0.3c1.6,0,2.9,1.2,3.1,2.8l1.1,11.5
				c0.1,0.6,0.9,0.6,0.9,0l0.9-10c0.1-1.6,1.5-2.8,3.1-2.8h0c1.7,0,3.1,1.4,3.1,3.1c0,6.6-0.2,22-0.7,27.1
				c-0.7,6.5-7.4,15.6-18.1,15.6C633.3,468.7,627.9,464.1,623.1,456.4z"/>
		</g>
	</g>
</g>
<g id="temperaturemarker">
	
		<line fill="none" stroke="#ED7564" stroke-width="2" stroke-linecap="round" stroke-miterlimit="10" x1="3403.4" y1="392" x2="-2463.4" y2="392"/>
</g>
<g id="temperaturewidthmask">
	<g>
		<defs>
			<rect id="pollutionwidthmask" x="-1530" width="4000" height="560"/>
		</defs>
		<clipPath id="pollutionwidthmask_1_">
			<use xlink:href="#pollutionwidthmask"  overflow="visible"/>
		</clipPath>
		<rect x="-2463.4" y="460" display="none" clip-path="url(#pollutionwidthmask_1_)" fill="#676767" width="5866.8" height="560"/>
	</g>
</g>
<g id="fill">
	<path fill="#FFFFFF" d="M474.9,73.5l-86.6,323.1l-1.4,1c-13.1,9.6-22.7,23.5-26.9,39.2c-4.9,18.4-2.4,37.7,7.2,54.3
		s25,28.4,43.4,33.4c6.1,1.6,12.4,2.5,18.6,2.5c12.4,0,24.8-3.3,35.7-9.6c16.6-9.6,28.4-25,33.4-43.4c4.2-15.7,2.9-32.5-3.7-47.4
		l-0.7-1.6l86.6-323.1c3.8-14.1,1.8-28.8-5.5-41.5c-7.3-12.6-19.1-21.7-33.2-25.5c-4.7-1.3-9.5-1.9-14.2-1.9
		c-9.5,0-18.8,2.5-27.2,7.3C487.7,47.6,478.7,59.4,474.9,73.5z"/>
</g>
<g id="measure">
	<path fill="#E1F0FC" d="M516.1,84.6l23,6.2l-91.8,342.5c8.4,6.9,12.6,18.4,9.5,29.6c-4.1,15.3-19.8,24.4-35.1,20.3
		c-15.3-4.1-24.4-19.8-20.3-35.1c3-11.1,12.1-18.9,22.8-20.8L516.1,84.6z"/>
</g>
<g id="edge">
	<g>
		<path fill="#333333" d="M543.2,30.1c-15.4-4.1-31.5-2-45.3,6c-13.8,8-23.7,20.8-27.8,36.2L384,393.7c-14.1,10.3-24.2,25-28.7,41.9
			c-5.3,19.7-2.6,40.4,7.7,58.1c10.2,17.7,26.7,30.4,46.5,35.7c6.6,1.8,13.3,2.6,19.9,2.6c13.3,0,26.4-3.5,38.2-10.3
			c17.7-10.2,30.4-26.7,35.7-46.5c4.5-16.9,3.1-34.7-3.9-50.7l86.1-321.4C593.9,71.3,574.9,38.6,543.2,30.1z M480.1,469.1
			c-6.3,23.5-27.6,39.1-50.9,39.1c-4.5,0-9.1-0.6-13.6-1.8c-13.6-3.6-24.9-12.4-32-24.6c-7-12.2-8.9-26.4-5.3-40
			c3.4-12.7,11.4-23.6,22.5-30.7l3.9-2.5l88.5-330.1c2.5-9.2,8.4-17,16.7-21.7c5.5-3.2,11.6-4.8,17.8-4.8c3.1,0,6.2,0.4,9.3,1.2
			c19.1,5.1,30.4,24.8,25.3,43.8l-11.4-3.1l-3.1,11.5l11.4,3.1l-5.5,20.6l-11.4-3.1l-3.1,11.5l11.4,3.1l-5.5,20.6l-11.4-3.1
			l-3.1,11.5l11.4,3.1l-5.5,20.6l-11.4-3.1l-3.1,11.5l11.4,3.1l-5.5,20.6l-11.4-3.1l-3.1,11.5l11.4,3.1l-5.5,20.6l-11.4-3.1
			l-3.1,11.5l11.4,3.1l-5.5,20.6l-11.4-3.1l-3.1,11.5l11.4,3.1L502,322l-11.4-3.1l-3.1,11.5l11.4,3.1l-5.5,20.6l-11.4-3.1l-3.1,11.5
			l11.4,3.1l-5.5,20.6l-11.4-3.1l-3.1,11.5l11.4,3.1l-7.8,29.2l2.1,4.1C482,442.9,483.5,456.4,480.1,469.1z"/>
	</g>
</g>
<g id="mercuryLayer" clip-path="url(#measure_x5F_clip_1_)">
	<g id="mercury">
		<rect id="_x3C_Rectangle_x3E__2_" x="370" y="392" fill="#E74128" width="200" height="560"/>
	</g>
</g>
</svg>
